<?xml version="1.0" standalone="no"?>
<!DOCTYPE svg PUBLIC "-//W3C//DTD SVG 20010904//EN"
 "http://www.w3.org/TR/2001/REC-SVG-20010904/DTD/svg10.dtd">
<svg version="1.0" xmlns="http://www.w3.org/2000/svg"
 width="257.000000pt" height="257.000000pt" viewBox="0 0 257.000000 257.000000"
 preserveAspectRatio="xMidYMid meet">
<metadata>
Created by potrace 1.11, written by Peter Selinger 2001-2013
</metadata>
<g transform="translate(0.000000,257.000000) scale(0.100000,-0.100000)"
fill="#000000" stroke="none">
<path d="M1219 2566 c-2 -2 -23 -6 -46 -9 -202 -28 -414 -120 -522 -226 -68
-67 -108 -129 -162 -246 -8 -16 -29 -42 -46 -58 -41 -36 -99 -155 -112 -227
-5 -30 -8 -125 -7 -210 2 -126 6 -167 23 -217 l21 -63 -24 0 c-43 0 -85 -49
-99 -116 -18 -88 -4 -168 45 -261 22 -42 40 -84 40 -93 0 -9 11 -38 25 -66 25
-50 100 -109 135 -107 11 1 25 -19 44 -62 30 -69 95 -170 160 -250 62 -76 226
-237 276 -271 115 -79 297 -105 449 -64 113 31 176 75 311 215 127 132 192
218 244 325 21 41 41 81 45 89 4 8 15 15 25 17 31 4 95 53 120 92 14 20 30 56
36 80 6 24 28 76 49 115 34 65 38 81 40 154 3 119 -29 186 -94 199 l-32 6 19
66 c10 37 21 105 24 152 3 47 12 105 21 129 15 42 21 138 11 171 -13 46 -23
68 -42 100 -12 19 -39 73 -60 120 -20 47 -58 112 -84 146 -80 106 -235 211
-377 256 -84 27 -81 24 -66 42 9 11 8 17 -4 30 -9 9 -19 16 -23 17 -8 1 -25 5
-62 14 -28 8 -294 17 -301 11z"/>
</g>
</svg>
